<?xml version="1.0" standalone="no"?>
<!DOCTYPE svg PUBLIC "-//W3C//DTD SVG 20010904//EN"
 "http://www.w3.org/TR/2001/REC-SVG-20010904/DTD/svg10.dtd">
<svg version="1.0" xmlns="http://www.w3.org/2000/svg"
 width="597" height="534" viewBox="0 0 597 534"
 preserveAspectRatio="xMidYMid meet">

<g transform="translate(0.000000,4167.000000) scale(0.100000,-0.100000)"
fill="#000000" stroke="none">
<path d="M12718 34265 c-10 -13 -18 -27 -18 -32 1 -6 1384 -1096 1450 -1141
18 -13 53 15 434 337 228 193 417 355 420 359 2 4 -7 20 -20 35 l-25 29 -42
-35 c-23 -19 -202 -170 -397 -335 -303 -258 -357 -299 -370 -288 -74 63 -1400
1096 -1407 1096 -4 0 -16 -11 -25 -25z"/>
<path d="M37450 33341 c-173 -64 -479 -177 -680 -250 -201 -74 -376 -139 -389
-146 -22 -11 9 -37 599 -504 341 -271 623 -491 625 -490 1 2 42 326 89 719 47
393 89 732 92 753 4 27 2 37 -8 36 -7 0 -155 -54 -328 -118z"/>
<path d="M33970 31523 c-304 -119 -677 -183 -1350 -233 -597 -43 -812 -74
-1035 -147 -165 -53 -349 -166 -417 -255 l-27 -35 732 -581 c657 -521 733
-579 745 -564 7 9 56 89 108 177 334 562 762 1103 1214 1536 85 82 153 148
150 148 -3 -1 -57 -21 -120 -46z"/>
<path d="M36715 29313 c-96 -161 -294 -457 -425 -633 -247 -332 -460 -578
-773 -897 l-219 -222 239 -189 c131 -104 460 -365 732 -581 l494 -390 25 32
c38 50 101 189 122 271 10 41 23 117 29 170 27 235 9 429 -103 1151 -85 543
-107 828 -87 1113 6 97 16 197 21 222 4 25 7 46 6 48 -2 1 -29 -41 -61 -95z"/>
<path d="M33160 27863 c-24 -13 -110 -113 -285 -335 -137 -174 -253 -317 -257
-318 -4 0 -181 137 -393 305 -212 168 -392 308 -399 311 -8 3 -177 -107 -387
-253 -206 -142 -387 -267 -404 -277 l-29 -19 28 -21 c15 -12 155 -121 310
-244 154 -123 372 -296 484 -384 111 -88 202 -162 202 -164 0 -3 -172 -222
-452 -574 -112 -140 -126 -169 -114 -235 7 -38 60 -96 111 -123 38 -19 109
-19 139 2 13 8 149 173 301 366 153 193 282 349 287 348 9 -3 49 -34 628 -492
212 -168 388 -302 392 -298 3 4 86 209 183 457 l176 450 -23 17 c-108 80 -762
605 -765 613 -1 6 99 138 224 295 300 378 283 354 283 410 0 114 -145 212
-240 163z"/>
<path d="M10555 25070 c-213 -33 -414 -152 -531 -316 -87 -122 -132 -253 -143
-422 l-6 -93 -89 -30 c-396 -133 -674 -404 -796 -780 -106 -324 -84 -714 60
-1044 38 -87 112 -206 134 -214 23 -9 356 -34 362 -28 2 2 21 93 41 203 20
109 39 203 43 207 4 4 53 -88 109 -205 57 -117 104 -214 105 -215 1 -1 179
-14 396 -27 217 -14 414 -27 436 -29 l42 -4 4 296 5 296 -45 40 c-182 159
-216 454 -72 619 97 110 267 122 406 30 67 -44 105 -89 147 -174 17 -36 33
-67 34 -69 6 -10 144 36 213 70 224 112 380 328 476 659 15 52 29 97 30 98 2
2 59 -38 127 -90 284 -212 549 -350 797 -415 137 -36 296 -36 398 0 439 153
404 641 -77 1041 -368 307 -919 492 -1406 473 -155 -6 -348 -39 -416 -70 -19
-9 -70 -30 -114 -47 -304 -119 -567 -333 -697 -568 -19 -34 -38 -59 -41 -55
-13 13 -7 160 9 214 54 184 214 356 401 432 94 38 161 51 260 51 l91 0 -35 24
c-64 43 -198 101 -284 122 -97 24 -284 33 -374 20z"/>
<path d="M12277 23359 c-84 -20 -197 -98 -197 -136 0 -14 10 -15 68 -9 37 4
119 11 182 16 63 4 123 12 133 15 50 20 39 87 -18 110 -38 16 -109 18 -168 4z"/>
<path d="M12909 23281 c-58 -58 -34 -85 107 -122 176 -46 164 -45 164 -18 0
55 -69 125 -149 154 -63 22 -89 19 -122 -14z"/>
<path d="M10755 23181 c-3 -6 17 -44 44 -85 54 -83 71 -140 71 -241 0 -35 5
-67 10 -70 19 -12 43 67 44 140 1 89 -34 166 -101 225 -48 42 -58 46 -68 31z"/>
<path d="M12364 23115 c-108 -45 -80 -216 35 -215 84 1 129 99 81 178 -11 17
-21 32 -22 32 -2 0 -17 4 -34 9 -20 6 -40 5 -60 -4z"/>
<path d="M12914 23030 c-85 -34 -83 -173 2 -194 110 -28 160 155 53 193 -18 6
-32 11 -33 10 -1 0 -11 -4 -22 -9z"/>
<path d="M12725 22820 c-9 -15 22 -69 77 -132 59 -70 58 -82 -17 -133 -62 -43
-66 -69 -7 -53 86 24 132 67 132 126 0 31 -10 45 -84 119 -46 45 -87 83 -90
83 -2 0 -8 -4 -11 -10z"/>
<path d="M12220 22444 c0 -28 72 -125 124 -166 79 -63 128 -81 221 -82 44 0
92 5 107 12 37 15 28 40 -12 34 -50 -7 -162 18 -224 51 -32 17 -91 62 -131 99
-40 37 -76 68 -79 68 -3 0 -6 -7 -6 -16z"/>
<path d="M11222 22137 c157 -414 531 -798 900 -921 129 -44 118 -64 118 209 0
129 -2 235 -5 235 -3 0 -49 9 -102 21 -288 62 -595 222 -843 439 -89 77 -91
78 -68 17z"/>
<path d="M10865 20560 c-9 -15 23 -56 121 -150 226 -218 491 -331 774 -332
177 0 286 32 405 122 89 66 154 183 169 308 6 43 4 52 -8 52 -9 0 -18 -12 -22
-27 -33 -152 -109 -261 -223 -322 -307 -163 -779 -42 -1138 293 -40 37 -74 62
-78 56z"/>
<path d="M13104 20423 c24 -82 100 -770 128 -1158 14 -194 17 -925 5 -987 -7
-36 -6 -38 16 -38 17 0 26 7 31 23 3 12 8 141 12 287 12 479 -32 1114 -119
1730 l-22 155 -28 3 c-24 3 -28 0 -23 -15z"/>
<path d="M10208 20248 c-14 -12 19 -95 289 -726 168 -392 304 -714 302 -716
-2 -2 -334 -155 -736 -341 -403 -185 -733 -341 -733 -344 0 -4 6 -14 13 -23
10 -14 98 24 722 313 391 181 731 338 757 349 42 18 46 23 39 43 -11 28 -565
1323 -598 1400 -28 61 -31 64 -55 45z"/>
<path d="M16190 16071 c0 -63 -13 -73 -103 -78 -60 -3 -86 1 -154 25 -46 15
-83 27 -83 26 0 -2 11 -20 25 -40 49 -72 18 -133 -72 -141 -41 -4 -66 2 -170
46 -66 28 -124 51 -128 51 -4 0 5 -14 19 -31 52 -62 40 -116 -31 -140 -51 -17
-204 -5 -325 24 l-98 24 0 -78 0 -79 799 0 c627 0 801 3 808 13 6 6 58 105
117 220 l107 207 -355 0 -356 0 0 -49z"/>
<path d="M8650 15554 c0 -4 -53 -379 -117 -833 -116 -818 -117 -828 -118
-1016 0 -208 11 -284 66 -448 64 -194 160 -354 296 -498 142 -148 303 -256
462 -308 64 -21 76 -21 1135 -21 771 -1 1084 -4 1116 -12 31 -8 254 -13 710
-15 l666 -3 121 -373 c206 -632 1669 -5128 1749 -5374 l75 -233 140 0 140 0
-12 -22 c-7 -13 -200 -320 -429 -683 -229 -363 -465 -738 -524 -832 l-109
-173 -4508 0 -4509 0 0 -40 0 -40 16005 0 16005 0 0 40 0 40 -8136 2 -8137 3
-581 921 c-319 506 -684 1085 -811 1285 -126 200 -405 643 -620 984 -215 341
-535 847 -710 1125 -175 278 -377 597 -448 709 -71 113 -131 210 -134 217 -2
6 62 117 143 245 177 282 345 548 696 1104 1411 2237 1867 2960 2089 3312 60
95 109 175 109 178 0 3 -20 5 -44 5 l-44 0 -125 -197 c-69 -109 -313 -497
-544 -863 -231 -366 -631 -1000 -889 -1410 -259 -410 -587 -929 -729 -1155
-338 -537 -684 -1084 -703 -1113 l-15 -23 -20 33 c-19 31 -24 124 -98 1743
-42 941 -82 1763 -88 1828 -38 414 -204 779 -489 1076 l-77 81 -2537 0 -2538
0 0 325 0 325 -22 0 c-23 0 -582 22 -1998 80 -773 32 -860 34 -860 24z m8761
-5717 c37 -58 403 -639 749 -1187 638 -1012 832 -1319 1170 -1855 194 -308
406 -643 470 -745 64 -102 193 -306 287 -455 94 -148 257 -406 362 -573 105
-166 191 -305 191 -307 0 -3 -451 -5 -1003 -5 l-1003 0 -640 532 c-352 293
-663 552 -691 576 -36 30 -50 37 -46 24 3 -15 -31 -46 -157 -142 -152 -117
-160 -125 -143 -141 10 -9 236 -198 503 -419 267 -222 492 -409 500 -416 12
-12 -285 -14 -1914 -14 -1707 0 -1927 2 -1922 15 5 13 163 264 773 1230 104
165 213 337 242 383 l53 82 664 0 c365 0 664 -1 664 -2 0 -2 11 -115 25 -253
14 -137 25 -257 25 -266 0 -10 53 -61 118 -115 64 -53 125 -104 134 -112 16
-14 30 -6 153 89 234 179 211 165 236 143 l21 -19 -6 35 c-18 107 -47 493 -38
499 7 4 5 30 -5 79 -8 40 -12 80 -9 88 4 11 35 14 160 14 85 0 157 3 159 8 3
4 -29 732 -70 1617 -72 1574 -74 1655 -46 1655 5 0 20 -19 34 -43z"/>
<path d="M9490 8455 l0 -3045 35 0 35 0 0 3045 0 3045 -35 0 -35 0 0 -3045z"/>
</g>
</svg>
